<svg xmlns="http://www.w3.org/2000/svg" viewBox="0 0 315 72"><g id="Layer_2" data-name="Layer 2"><g id="Layer_1-2" data-name="Layer 1"><polygon points="0 72 18 72 36 36 40.5 45 27 72 36 72 45 54 54 72 72 72 36 0 0 72"/><rect x="216.14" y="18" width="7.7" height="35.9"/><rect x="263.85" y="18" width="7.7" height="35.9"/><path d="M238.1,44.93V18h-7.7V47.78c0,4.35,1.81,6.12,6.12,6.12H258V46.2H239.37C238.4,46.2,238.1,45.84,238.1,44.93Z"/><polygon points="201.68 18 192.01 29.55 191.69 29.92 181.71 18 171.61 18 186.67 35.94 184.1 39.02 171.61 53.9 181.6 53.9 191.69 41.93 201.79 53.9 211.78 53.9 196.69 35.9 211.78 18 201.68 18"/><path d="M297.1,32.08c-8.19-.61-9.27-1.94-9.27-3.92,0-2.15,1.46-3.62,9.27-3.62,7,0,8.59,1.84,8.59,4.66h8.6c0-6.92-2.81-12-17.19-12-15.39,0-17,4.69-17.26,10.37C279.54,33.82,283.23,38,296,39c7.2.53,10.65,1.42,10.65,4.58,0,1.81-.86,3.59-9.56,3.59-7.07,0-9.69-1.81-9.69-5.42H279.1c0,12.62,12.85,13.12,18,13.12,16.11,0,17.92-6,17.9-11.42C315,34.3,307.42,32.84,297.1,32.08Z"/><path d="M158.54,42.16c0,3.2-1.66,4.24-5.09,4.24H143.14c-3.43,0-5.09-1-5.09-4.24V18h-7.7V42.16c0,8.37,2.82,11.84,12.57,11.84h10.75c9.75,0,12.57-3.47,12.57-11.84V18h-7.7Z"/><path d="M106.22,18h-5.44a3,3,0,0,0-2.69,1.66L81,54h8.31l4.48-9h19.42l4.48,9H126L108.91,19.66A3,3,0,0,0,106.22,18Zm-9.1,20.3,6.38-12.81,6.38,12.81Z"/></g></g></svg>